<svg id="wave" style="transform:rotate(0deg); transition: 0.3s" viewBox="0 0 1440 280" version="1.1" xmlns="http://www.w3.org/2000/svg">
<defs>
  <linearGradient id="sw-gradient-0" x1="0" x2="0" y1="1" y2="0">
    <stop stop-color="rgba(43.523, 112.376, 173.406, 1)" offset="0%"></stop>
    <stop stop-color="rgba(64.315, 149.907, 225.772, 1)" offset="100%"></stop>
  </linearGradient>
</defs>
<path style="transform:translate(0, 0px); opacity:1" fill="url(#sw-gradient-0)" d="M0,252L30,242.7C60,233,120,215,180,210C240,205,300,215,360,191.3C420,168,480,112,540,88.7C600,65,660,75,720,93.3C780,112,840,140,900,149.3C960,159,1020,149,1080,163.3C1140,177,1200,215,1260,219.3C1320,224,1380,196,1440,163.3C1500,131,1560,93,1620,88.7C1680,84,1740,112,1800,140C1860,168,1920,196,1980,196C2040,196,2100,168,2160,172.7C2220,177,2280,215,2340,233.3C2400,252,2460,252,2520,214.7C2580,177,2640,103,2700,93.3C2760,84,2820,140,2880,140C2940,140,3000,84,3060,56C3120,28,3180,28,3240,37.3C3300,47,3360,65,3420,102.7C3480,140,3540,196,3600,200.7C3660,205,3720,159,3780,144.7C3840,131,3900,149,3960,140C4020,131,4080,93,4140,107.3C4200,121,4260,187,4290,219.3L4320,252L4320,280L4290,280C4260,280,4200,280,4140,280C4080,280,4020,280,3960,280C3900,280,3840,280,3780,280C3720,280,3660,280,3600,280C3540,280,3480,280,3420,280C3360,280,3300,280,3240,280C3180,280,3120,280,3060,280C3000,280,2940,280,2880,280C2820,280,2760,280,2700,280C2640,280,2580,280,2520,280C2460,280,2400,280,2340,280C2280,280,2220,280,2160,280C2100,280,2040,280,1980,280C1920,280,1860,280,1800,280C1740,280,1680,280,1620,280C1560,280,1500,280,1440,280C1380,280,1320,280,1260,280C1200,280,1140,280,1080,280C1020,280,960,280,900,280C840,280,780,280,720,280C660,280,600,280,540,280C480,280,420,280,360,280C300,280,240,280,180,280C120,280,60,280,30,280L0,280Z"></path>
<defs>
  <linearGradient id="sw-gradient-1" x1="0" x2="0" y1="1" y2="0">
    <stop stop-color="rgba(35.762, 117.179, 189.343, 1)" offset="0%"></stop>
    <stop stop-color="rgba(108.692, 182.828, 248.54, 1)" offset="100%"></stop>
  </linearGradient>
</defs>
<path style="transform:translate(0, 50px); opacity:0.9" fill="url(#sw-gradient-1)" d="M0,112L30,126C60,140,120,168,180,158.7C240,149,300,103,360,84C420,65,480,75,540,88.7C600,103,660,121,720,130.7C780,140,840,140,900,126C960,112,1020,84,1080,70C1140,56,1200,56,1260,70C1320,84,1380,112,1440,107.3C1500,103,1560,65,1620,42C1680,19,1740,9,1800,32.7C1860,56,1920,112,1980,154C2040,196,2100,224,2160,224C2220,224,2280,196,2340,191.3C2400,187,2460,205,2520,186.7C2580,168,2640,112,2700,116.7C2760,121,2820,187,2880,177.3C2940,168,3000,84,3060,79.3C3120,75,3180,149,3240,186.7C3300,224,3360,224,3420,196C3480,168,3540,112,3600,102.7C3660,93,3720,131,3780,158.7C3840,187,3900,205,3960,191.3C4020,177,4080,131,4140,121.3C4200,112,4260,140,4290,154L4320,168L4320,280L4290,280C4260,280,4200,280,4140,280C4080,280,4020,280,3960,280C3900,280,3840,280,3780,280C3720,280,3660,280,3600,280C3540,280,3480,280,3420,280C3360,280,3300,280,3240,280C3180,280,3120,280,3060,280C3000,280,2940,280,2880,280C2820,280,2760,280,2700,280C2640,280,2580,280,2520,280C2460,280,2400,280,2340,280C2280,280,2220,280,2160,280C2100,280,2040,280,1980,280C1920,280,1860,280,1800,280C1740,280,1680,280,1620,280C1560,280,1500,280,1440,280C1380,280,1320,280,1260,280C1200,280,1140,280,1080,280C1020,280,960,280,900,280C840,280,780,280,720,280C660,280,600,280,540,280C480,280,420,280,360,280C300,280,240,280,180,280C120,280,60,280,30,280L0,280Z"></path>
<defs>
  <linearGradient id="sw-gradient-2" x1="0" x2="0" y1="1" y2="0">
    <stop stop-color="rgba(58.519, 130.286, 193.897, 1)" offset="0%"></stop>
    <stop stop-color="rgba(147.514, 204.495, 255, 1)" offset="100%"></stop>
  </linearGradient>
</defs>
<path style="transform:translate(0, 100px); opacity:0.8" fill="url(#sw-gradient-2)" d="M0,196L30,168C60,140,120,84,180,84C240,84,300,140,360,172.7C420,205,480,215,540,200.7C600,187,660,149,720,130.7C780,112,840,112,900,130.7C960,149,1020,187,1080,186.7C1140,187,1200,149,1260,121.3C1320,93,1380,75,1440,93.3C1500,112,1560,168,1620,186.7C1680,205,1740,187,1800,163.3C1860,140,1920,112,1980,112C2040,112,2100,140,2160,168C2220,196,2280,224,2340,233.3C2400,243,2460,233,2520,205.3C2580,177,2640,131,2700,116.7C2760,103,2820,121,2880,116.7C2940,112,3000,84,3060,88.7C3120,93,3180,131,3240,163.3C3300,196,3360,224,3420,233.3C3480,243,3540,233,3600,214.7C3660,196,3720,168,3780,172.7C3840,177,3900,215,3960,228.7C4020,243,4080,233,4140,233.3C4200,233,4260,243,4290,247.3L4320,252L4320,280L4290,280C4260,280,4200,280,4140,280C4080,280,4020,280,3960,280C3900,280,3840,280,3780,280C3720,280,3660,280,3600,280C3540,280,3480,280,3420,280C3360,280,3300,280,3240,280C3180,280,3120,280,3060,280C3000,280,2940,280,2880,280C2820,280,2760,280,2700,280C2640,280,2580,280,2520,280C2460,280,2400,280,2340,280C2280,280,2220,280,2160,280C2100,280,2040,280,1980,280C1920,280,1860,280,1800,280C1740,280,1680,280,1620,280C1560,280,1500,280,1440,280C1380,280,1320,280,1260,280C1200,280,1140,280,1080,280C1020,280,960,280,900,280C840,280,780,280,720,280C660,280,600,280,540,280C480,280,420,280,360,280C300,280,240,280,180,280C120,280,60,280,30,280L0,280Z"></path>
</svg>


