<svg width="73" height="19" viewBox="0 0 73 19" fill="none" xmlns="http://www.w3.org/2000/svg">
<path d="M5.83197 18.312C3.45597 18.312 1.82397 17.328 0.719971 15.384L2.66397 13.968C3.40797 15.336 4.36797 15.888 5.51997 15.888C7.29597 15.888 8.18397 14.928 8.18397 12.336V0.312H10.968V12.6C10.968 15.768 9.43197 18.312 5.83197 18.312Z" fill="#135C9D"/>
<path d="M23.2033 18.312C18.6673 18.312 15.5233 14.784 15.5233 9.096C15.5233 3.408 18.6673 0 23.2033 0C27.7393 0 30.9073 3.408 30.9073 9.096C30.9073 14.784 27.7393 18.312 23.2033 18.312ZM23.2033 15.888C26.1313 15.888 28.0513 13.224 28.0513 9.096C28.0513 4.944 26.1313 2.424 23.2033 2.424C20.2753 2.424 18.3793 4.944 18.3793 9.096C18.3793 13.224 20.2753 15.888 23.2033 15.888Z" fill="#135C9D"/>
<path d="M35.537 18V0.312H41.009C44.633 0.312 47.249 1.488 47.249 4.68C47.249 6.36 46.313 7.968 44.729 8.496V8.616C46.745 9.048 48.209 10.416 48.209 12.816C48.209 16.32 45.353 18 41.441 18H35.537ZM38.321 7.704H40.697C43.385 7.704 44.513 6.696 44.513 5.04C44.513 3.192 43.265 2.496 40.769 2.496H38.321V7.704ZM38.321 15.816H41.129C43.889 15.816 45.473 14.832 45.473 12.672C45.473 10.68 43.937 9.792 41.129 9.792H38.321V15.816Z" fill="#135C9D"/>
<path d="M52.5048 18V0.312H55.2888V18H52.5048Z" fill="#135C9D"/>
<path d="M65.9111 18.312C63.4871 18.312 61.2311 17.352 59.6231 15.72L61.2551 13.8C62.5271 15.072 64.2551 15.888 65.9591 15.888C68.0951 15.888 69.2951 14.88 69.2951 13.392C69.2951 11.784 68.0951 11.28 66.4631 10.56L64.0151 9.504C62.3111 8.784 60.4151 7.44 60.4151 4.872C60.4151 2.088 62.8631 0 66.2231 0C68.2871 0 70.2311 0.864 71.5751 2.232L70.1111 4.008C69.0071 3.024 67.7831 2.424 66.2231 2.424C64.4231 2.424 63.2471 3.288 63.2471 4.68C63.2471 6.216 64.6631 6.792 66.1031 7.368L68.5271 8.4C70.6151 9.288 72.1271 10.584 72.1271 13.176C72.1271 16.008 69.7751 18.312 65.9111 18.312Z" fill="#135C9D"/>
</svg>
