<svg width="40" height="40" viewBox="0 0 40 40" fill="none" xmlns="http://www.w3.org/2000/svg">
<g clip-path="url(#clip0_14833_9499)">
<path d="M19.9986 37.4972C31.6667 37.4972 37.4972 29.6628 37.4972 19.9986C37.4972 10.3344 31.6667 2.5 19.9986 2.5C8.33054 2.5 2.5 10.3344 2.5 19.9986C2.5 29.6628 8.33054 37.4972 19.9986 37.4972Z" fill="url(#paint0_radial_14833_9499)"/>
<path d="M19.9986 37.4972C31.6667 37.4972 37.4972 29.6628 37.4972 19.9986C37.4972 10.3344 31.6667 2.5 19.9986 2.5C8.33054 2.5 2.5 10.3344 2.5 19.9986C2.5 29.6628 8.33054 37.4972 19.9986 37.4972Z" fill="url(#paint1_radial_14833_9499)"/>
<path d="M19.9986 37.4972C31.6667 37.4972 37.4972 29.6628 37.4972 19.9986C37.4972 10.3344 31.6667 2.5 19.9986 2.5C8.33054 2.5 2.5 10.3344 2.5 19.9986C2.5 29.6628 8.33054 37.4972 19.9986 37.4972Z" fill="url(#paint2_radial_14833_9499)" fill-opacity="0.6"/>
<path d="M19.9986 37.4972C31.6667 37.4972 37.4972 29.6628 37.4972 19.9986C37.4972 10.3344 31.6667 2.5 19.9986 2.5C8.33054 2.5 2.5 10.3344 2.5 19.9986C2.5 29.6628 8.33054 37.4972 19.9986 37.4972Z" fill="url(#paint3_radial_14833_9499)"/>
<path d="M19.9986 37.4972C31.6667 37.4972 37.4972 29.6628 37.4972 19.9986C37.4972 10.3344 31.6667 2.5 19.9986 2.5C8.33054 2.5 2.5 10.3344 2.5 19.9986C2.5 29.6628 8.33054 37.4972 19.9986 37.4972Z" fill="url(#paint4_radial_14833_9499)"/>
<path d="M19.9986 37.4972C31.6667 37.4972 37.4972 29.6628 37.4972 19.9986C37.4972 10.3344 31.6667 2.5 19.9986 2.5C8.33054 2.5 2.5 10.3344 2.5 19.9986C2.5 29.6628 8.33054 37.4972 19.9986 37.4972Z" fill="url(#paint5_radial_14833_9499)"/>
<path d="M19.9986 37.4972C31.6667 37.4972 37.4972 29.6628 37.4972 19.9986C37.4972 10.3344 31.6667 2.5 19.9986 2.5C8.33054 2.5 2.5 10.3344 2.5 19.9986C2.5 29.6628 8.33054 37.4972 19.9986 37.4972Z" fill="url(#paint6_radial_14833_9499)"/>
<g opacity="0.5" filter="url(#filter0_f_14833_9499)">
<path d="M9.375 14.375C9.375 14.375 9.6875 11.875 12.5 11.875C15.3125 11.875 15.625 14.375 15.625 14.375" stroke="#9A4609" stroke-width="2" stroke-linecap="round"/>
</g>
<g opacity="0.5" filter="url(#filter1_f_14833_9499)">
<path d="M23.125 14.375C23.125 14.375 23.75 11.875 26.25 11.875C28.75 11.875 29.375 14.375 29.375 14.375" stroke="#9A4609" stroke-width="2" stroke-linecap="round"/>
</g>
<path d="M10 13.75C10 13.75 10.3125 11.25 13.125 11.25C15.9375 11.25 16.25 13.75 16.25 13.75" stroke="#43273B" stroke-width="2" stroke-linecap="round" stroke-linejoin="round"/>
<g opacity="0.26" filter="url(#filter2_f_14833_9499)">
<path d="M10.3125 13.4375C10.3125 13.4375 10.625 10.9375 13.4375 10.9375C16.25 10.9375 16.5625 13.4375 16.5625 13.4375" stroke="white" stroke-width="0.75" stroke-linecap="round" stroke-linejoin="round"/>
</g>
<path d="M23.75 13.75C23.75 13.75 24.375 11.25 26.875 11.25C29.375 11.25 30 13.75 30 13.75" stroke="#43273B" stroke-width="2" stroke-linecap="round" stroke-linejoin="round"/>
<g opacity="0.26" filter="url(#filter3_f_14833_9499)">
<path d="M24.0625 13.4375C24.0625 13.4375 24.375 10.9375 27.1875 10.9375C30 10.9375 30.3125 13.4375 30.3125 13.4375" stroke="white" stroke-width="0.75" stroke-linecap="round" stroke-linejoin="round"/>
</g>
<path d="M20 31.25C8.75 31.25 8.75 20 8.75 20H31.25C31.25 20 31.25 31.25 20 31.25Z" fill="url(#paint7_radial_14833_9499)"/>
<path d="M10 20.875V20H30V20.875C30 21.4273 29.5523 21.875 29 21.875H11C10.4477 21.875 10 21.4273 10 20.875Z" fill="url(#paint8_linear_14833_9499)"/>
</g>
<defs>
<filter id="filter0_f_14833_9499" x="6.87488" y="9.375" width="11.2502" height="7.5" filterUnits="userSpaceOnUse" color-interpolation-filters="sRGB">
<feFlood flood-opacity="0" result="BackgroundImageFix"/>
<feBlend mode="normal" in="SourceGraphic" in2="BackgroundImageFix" result="shape"/>
<feGaussianBlur stdDeviation="0.75" result="effect1_foregroundBlur_14833_9499"/>
</filter>
<filter id="filter1_f_14833_9499" x="20.6248" y="9.375" width="11.2505" height="7.5" filterUnits="userSpaceOnUse" color-interpolation-filters="sRGB">
<feFlood flood-opacity="0" result="BackgroundImageFix"/>
<feBlend mode="normal" in="SourceGraphic" in2="BackgroundImageFix" result="shape"/>
<feGaussianBlur stdDeviation="0.75" result="effect1_foregroundBlur_14833_9499"/>
</filter>
<filter id="filter2_f_14833_9499" x="8.43744" y="9.0625" width="10.0001" height="6.25" filterUnits="userSpaceOnUse" color-interpolation-filters="sRGB">
<feFlood flood-opacity="0" result="BackgroundImageFix"/>
<feBlend mode="normal" in="SourceGraphic" in2="BackgroundImageFix" result="shape"/>
<feGaussianBlur stdDeviation="0.75" result="effect1_foregroundBlur_14833_9499"/>
</filter>
<filter id="filter3_f_14833_9499" x="22.1874" y="9.0625" width="10.0001" height="6.25" filterUnits="userSpaceOnUse" color-interpolation-filters="sRGB">
<feFlood flood-opacity="0" result="BackgroundImageFix"/>
<feBlend mode="normal" in="SourceGraphic" in2="BackgroundImageFix" result="shape"/>
<feGaussianBlur stdDeviation="0.75" result="effect1_foregroundBlur_14833_9499"/>
</filter>
<radialGradient id="paint0_radial_14833_9499" cx="0" cy="0" r="1" gradientUnits="userSpaceOnUse" gradientTransform="translate(31.875 11.25) rotate(131.878) scale(48.6859)">
<stop stop-color="#FFF478"/>
<stop offset="0.474827" stop-color="#FFB02E"/>
<stop offset="1" stop-color="#F70A8D"/>
</radialGradient>
<radialGradient id="paint1_radial_14833_9499" cx="0" cy="0" r="1" gradientUnits="userSpaceOnUse" gradientTransform="translate(20 15.625) rotate(101.31) scale(22.3082 28.5726)">
<stop offset="0.787821" stop-color="#F59639" stop-opacity="0"/>
<stop offset="0.972509" stop-color="#FF7DCE"/>
</radialGradient>
<radialGradient id="paint2_radial_14833_9499" cx="0" cy="0" r="1" gradientUnits="userSpaceOnUse" gradientTransform="translate(22.5 17.5) rotate(135) scale(51.2652)">
<stop offset="0.314853" stop-opacity="0"/>
<stop offset="1"/>
</radialGradient>
<radialGradient id="paint3_radial_14833_9499" cx="0" cy="0" r="1" gradientUnits="userSpaceOnUse" gradientTransform="translate(20 21.25) rotate(77.692) scale(35.1837)">
<stop offset="0.507903" stop-color="#7D6133" stop-opacity="0"/>
<stop offset="1" stop-color="#715B32"/>
</radialGradient>
<radialGradient id="paint4_radial_14833_9499" cx="0" cy="0" r="1" gradientUnits="userSpaceOnUse" gradientTransform="translate(20.625 20.625) rotate(55.7131) scale(16.6419 12.0629)">
<stop stop-color="#FFB849"/>
<stop offset="1" stop-color="#FFB847" stop-opacity="0"/>
</radialGradient>
<radialGradient id="paint5_radial_14833_9499" cx="0" cy="0" r="1" gradientUnits="userSpaceOnUse" gradientTransform="translate(25.625 22.5) rotate(9.86581) scale(14.5908)">
<stop stop-color="#FFA64B"/>
<stop offset="0.900412" stop-color="#FFAE46" stop-opacity="0"/>
</radialGradient>
<radialGradient id="paint6_radial_14833_9499" cx="0" cy="0" r="1" gradientUnits="userSpaceOnUse" gradientTransform="translate(21.875 18.75) rotate(43.9708) scale(73.8162)">
<stop offset="0.185425" stop-opacity="0"/>
<stop offset="1" stop-opacity="0.4"/>
</radialGradient>
<radialGradient id="paint7_radial_14833_9499" cx="0" cy="0" r="1" gradientUnits="userSpaceOnUse" gradientTransform="translate(20 33.75) rotate(-90) scale(13.75 27.5)">
<stop stop-color="#F70A8D"/>
<stop offset="1" stop-color="#89029C"/>
</radialGradient>
<linearGradient id="paint8_linear_14833_9499" x1="20" y1="20" x2="20" y2="21.875" gradientUnits="userSpaceOnUse">
<stop stop-color="#ECCDFF"/>
<stop offset="1" stop-color="white"/>
</linearGradient>
<clipPath id="clip0_14833_9499">
<rect width="40" height="40" fill="white"/>
</clipPath>
</defs>
</svg>
