<svg width="12" height="16" viewBox="0 0 12 16" fill="none" xmlns="http://www.w3.org/2000/svg">
<path d="M1.33869e-07 2V15.5C-6.33938e-05 15.5868 0.0224845 15.6722 0.0654246 15.7476C0.108365 15.8231 0.170217 15.8861 0.244892 15.9304C0.319567 15.9747 0.404491 15.9988 0.491305 16.0003C0.578119 16.0018 0.66383 15.9807 0.74 15.939L6 13.069L11.26 15.939C11.3362 15.9807 11.4219 16.0018 11.5087 16.0003C11.5955 15.9988 11.6804 15.9747 11.7551 15.9304C11.8298 15.8861 11.8916 15.8231 11.9346 15.7476C11.9775 15.6722 12.0001 15.5868 12 15.5V2C12 1.46957 11.7893 0.960859 11.4142 0.585786C11.0391 0.210714 10.5304 0 10 0L2 0C1.46957 0 0.960859 0.210714 0.585786 0.585786C0.210714 0.960859 1.33869e-07 1.46957 1.33869e-07 2Z" fill="#237BC9"/>
</svg>
